<svg xmlns="http://www.w3.org/2000/svg" xmlns:xlink="http://www.w3.org/1999/xlink" version="1.1" x="0px" y="0px" viewBox="0 0 64 64" enable-background="new 0 0 64 64" xml:space="preserve">
<g id="lockoutline-bot_x5F_s1g1_x5F_s2g1_x5F_s3g1_x5F_s4g2">
	<path fill="none" stroke="#000000" stroke-width="2.01" stroke-linecap="round" stroke-linejoin="round" stroke-miterlimit="10" d="   M41.727,26.026v-4.273c0-5.372-4.355-9.727-9.727-9.727h0c-5.372,0-9.727,4.355-9.727,9.727v4.273"/>
</g>
<g id="lock-outline-bot_x5F_s1g1_x5F_s2g1_x5F_s3g1_x5F_s4g1_x5F_background">
	
		<path fill="#FFFFFF" stroke="#FFB031" stroke-width="2.01" stroke-linecap="round" stroke-linejoin="round" stroke-miterlimit="10" d="   M20.367,26.823l6.375-2.567c3.253-1.31,6.885-1.327,10.15-0.048l6.708,2.628c1.448,0.567,2.4,1.963,2.4,3.518v6.495   c0,8.353-6.268,15.125-14,15.125h0c-7.732,0-14-6.772-14-15.125v-6.521C18,28.786,18.937,27.399,20.367,26.823z"/>
</g>
<g id="lock-outline-top_x5F_s1g1_x5F_s2g2_x5F_s3g1_x5F_s4g1_x5F_background">
	<g id="home-outline-first_x5F_s1g1_x5F_s2g1_x5F_s3g1_x5F_s4g1_1_">
	</g>
	
		<path fill="#FFFFFF" stroke="#FFB031" stroke-width="2.01" stroke-linecap="round" stroke-linejoin="round" stroke-miterlimit="10" d="   M35.5,34.776c0-1.933-1.567-3.5-3.5-3.5s-3.5,1.567-3.5,3.5c0,1.292,0.708,2.408,1.75,3.015v3.985c0,0.966,0.784,1.75,1.75,1.75   s1.75-0.784,1.75-1.75v-3.985C34.792,37.184,35.5,36.068,35.5,34.776z"/>
</g>
</svg>