<svg xmlns="http://www.w3.org/2000/svg" data-name="Layer 3" viewBox="0 0 128 160" x="0px" y="0px"><path d="M64,58.72c-7.32,0-10.01,9.68-3.7,13.41v9.6c0,.83,.67,1.5,1.5,1.5h4.4c.83,0,1.5-.67,1.5-1.5v-9.6c6.31-3.73,3.63-13.41-3.7-13.41Zm.7,12.48v9.02h-1.4v-9.02c0-.61-.37-1.15-.93-1.39-4.26-1.77-2.99-8.1,1.63-8.1s5.89,6.33,1.63,8.1c-.56,.23-.93,.78-.93,1.39Z"/><path d="M109.21,66.94h-19.48v-1.36h7.07c2.23,0,4.05-1.81,4.05-4.04v-10.47h2.46c3.82,4.61,11.29,1.85,11.29-4.04s-7.48-8.64-11.29-4.04h-6.5c-2.23,0-4.05,1.81-4.05,4.04v10.47h-3.03v-5.49c0-1.95-1.59-3.53-3.54-3.53h-4.32v-12.08c0-5.33-4.36-9.67-9.71-9.67h-16.32c-5.35,0-9.71,4.34-9.71,9.67v12.08h-4.32c-1.95,0-3.54,1.58-3.54,3.53v5.49h-3.03v-10.47c0-2.23-1.82-4.04-4.05-4.04h-6.5c-3.81-4.6-11.29-1.87-11.29,4.04s7.47,8.64,11.29,4.04h2.46v10.47c0,2.23,1.82,4.04,4.05,4.04h7.07v1.36H18.79c-3.81-4.6-11.29-1.86-11.29,4.04s7.48,8.64,11.29,4.04h19.48v1.36h-7.07c-2.23,0-4.05,1.81-4.05,4.04v10.47h-2.46c-3.81-4.6-11.29-1.86-11.29,4.04s7.48,8.64,11.29,4.04h6.5c2.23,0,4.05-1.81,4.05-4.04v-10.47h3.03v2.58c0,3.56,2.9,6.45,6.47,6.45h38.51c3.57,0,6.47-2.89,6.47-6.45v-2.58h3.03v10.47c0,2.23,1.82,4.04,4.05,4.04h6.5c3.81,4.6,11.29,1.87,11.29-4.04s-7.47-8.63-11.29-4.04h-2.46v-10.47c0-2.23-1.82-4.04-4.05-4.04h-7.07v-1.36h19.48c3.82,4.6,11.29,1.86,11.29-4.04s-7.47-8.63-11.29-4.04Zm4.91,7.39c-2.47,0-4.23-2.68-2.93-4.97,1.72-3.04,6.31-1.78,6.31,1.62,0,1.85-1.51,3.35-3.37,3.35Zm-24.4-2.31v-2.08h18.12c-.12,.74-.12,1.33,0,2.08h-18.12Zm8.12,8.4v11.97c0,.83,.67,1.5,1.5,1.5h2.59c-.12,.74-.12,1.33,0,2.08h-5.14c-.58,0-1.05-.47-1.05-1.04v-11.97c0-.83-.67-1.5-1.5-1.5h-4.53v-2.08h7.07c.58,0,1.05,.47,1.05,1.04Zm8.45,11.76c2.23-1.54,5.3,.05,5.3,2.75s-3.07,4.29-5.3,2.75c-1.92-1.33-1.92-4.16,0-5.49Zm-19.57-5.15c0,1.9-1.56,3.45-3.47,3.45H44.75c-1.92,0-3.47-1.55-3.47-3.45V52.01c0-.29,.24-.53,.54-.53h44.37c.3,0,.54,.24,.54,.53v35.02Zm-54.48-4.08v11.97c0,.57-.47,1.04-1.05,1.04h-5.14c.12-.74,.12-1.33,0-2.08h2.59c.83,0,1.5-.67,1.5-1.5v-11.97c0-.57,.47-1.04,1.05-1.04h7.07v2.08h-4.53c-.83,0-1.5,.67-1.5,1.5Zm-10.54,14.71c-2.23,1.55-5.3-.05-5.3-2.75s3.07-4.29,5.3-2.75c1.92,1.33,1.92,4.16,0,5.49Zm-5.91-23.95c-2.23,1.55-5.3-.05-5.3-2.75s3.07-4.29,5.3-2.75c1.92,1.33,1.92,4.16,0,5.49Zm4.36-3.78h18.12v2.08H20.15c.12-.74,.12-1.33,0-2.08Zm10-8.4v-11.97c0-.83-.67-1.5-1.5-1.5h-2.59c.12-.74,.12-1.33,0-2.08h5.14c.58,0,1.05,.47,1.05,1.04v11.97c0,.83,.67,1.5,1.5,1.5h4.53v2.08h-7.07c-.58,0-1.05-.47-1.05-1.04Zm-8.45-11.76c-2.23,1.54-5.3-.05-5.3-2.74s3.07-4.29,5.3-2.75c1.92,1.33,1.92,4.16,0,5.49Zm27.43-13.38c0-3.68,3.01-6.67,6.71-6.67h16.32c3.7,0,6.71,2.99,6.71,6.67v12.08h-3.22v-12.08c0-1.92-1.57-3.48-3.49-3.48h-16.32c-1.93,0-3.49,1.56-3.49,3.48v12.08h-3.22v-12.08Zm23.52,12.08h-17.31v-12.08c0-.27,.22-.48,.49-.48h16.32c.27,0,.49,.22,.49,.48v12.08Zm23.1,10.52v-11.97c0-.57,.47-1.04,1.05-1.04h5.14c-.12,.74-.12,1.33,0,2.08h-2.59c-.83,0-1.5,.67-1.5,1.5v11.97c0,.57-.47,1.04-1.05,1.04h-7.07v-2.08h4.53c.83,0,1.5-.67,1.5-1.5Zm10.54-14.71c2.23-1.54,5.3,.05,5.3,2.75s-3.07,4.29-5.3,2.74c-1.92-1.33-1.92-4.16,0-5.49Z"/><text x="0" y="143" fill="#000000" font-size="5px" font-weight="bold" font-family="'Helvetica Neue', Helvetica, Arial-Unicode, Arial, Sans-serif">Created by Sfac Tory</text><text x="0" y="148" fill="#000000" font-size="5px" font-weight="bold" font-family="'Helvetica Neue', Helvetica, Arial-Unicode, Arial, Sans-serif">from the Noun Project</text></svg>