<?xml version="1.0" standalone="no"?>
<!DOCTYPE svg PUBLIC "-//W3C//DTD SVG 20010904//EN"
 "http://www.w3.org/TR/2001/REC-SVG-20010904/DTD/svg10.dtd">
<svg version="1.0" xmlns="http://www.w3.org/2000/svg"
 width="300.000000pt" height="300.000000pt" viewBox="0 0 300.000000 300.000000"
 preserveAspectRatio="xMidYMid meet">
<metadata>
Created by potrace 1.14, written by Peter Selinger 2001-2017
</metadata>
<g transform="translate(0.000000,300.000000) scale(0.100000,-0.100000)"
fill="#000000" stroke="none">
<path d="M16 2132 c-14 -3 -16 -13 -14 -50 l3 -46 58 -1 c98 -2 92 33 93 -497
l1 -461 -23 -22 c-19 -18 -34 -22 -79 -20 l-55 1 0 -48 0 -48 370 0 c345 0
370 1 372 18 0 9 2 24 3 32 4 36 -13 47 -67 45 -51 -1 -92 14 -94 35 -1 6 -3
11 -4 13 -2 1 -4 95 -5 209 -2 203 -2 206 19 210 32 6 445 2 451 -3 7 -8 7
-352 0 -391 -11 -60 -28 -72 -98 -73 l-62 0 0 -45 0 -45 376 -3 377 -2 -2 47
-1 48 -68 1 c-60 1 -70 4 -85 25 -9 13 -16 27 -14 31 1 5 -1 8 -5 8 -5 0 -8
198 -8 440 0 260 4 440 9 440 5 0 6 3 3 6 -9 10 12 46 24 39 5 -4 9 -2 9 2 0
5 26 8 58 8 31 0 62 1 68 3 6 1 11 23 11 47 l1 45 -69 0 c-38 1 -207 1 -376 1
l-308 1 0 -48 0 -48 55 -1 c66 -1 83 -10 98 -53 9 -26 15 -194 12 -359 l0 -33
-238 0 -239 0 0 195 c0 107 4 195 8 195 5 0 6 6 3 14 -8 21 33 41 86 42 78 2
75 1 74 44 0 22 -3 42 -6 46 -6 6 -692 11 -722 6z"/>
<path d="M1758 2132 l-58 -3 0 -47 0 -47 70 0 c55 1 75 -3 90 -17 11 -10 20
-24 21 -31 0 -7 1 -214 1 -460 1 -528 9 -490 -112 -491 l-70 -1 0 -47 0 -48
644 0 644 0 6 63 c9 98 6 507 -5 508 -5 1 -18 1 -29 1 -11 0 -24 0 -30 -1 -13
-1 -41 -57 -33 -65 4 -3 1 -6 -4 -6 -6 0 -23 -32 -38 -70 -15 -39 -34 -77 -42
-85 -8 -8 -12 -15 -8 -15 10 0 -55 -113 -92 -158 -34 -41 -78 -72 -118 -80
-32 -7 -284 -7 -291 1 -5 5 -9 814 -5 934 1 12 11 33 24 46 20 21 30 23 105
23 l83 -1 -3 48 -3 49 -345 1 c-190 1 -371 1 -402 -1z"/>
</g>
</svg>
